<svg width="733" height="167" viewBox="0 0 733 167" fill="none" xmlns="http://www.w3.org/2000/svg">
<path d="M83.8 82V76H162.4V82H83.8ZM83.8 95.2V89.2H162.4V95.2H83.8ZM83.8 108.4V102.4H162.4V108.4H83.8ZM83.4 167C70.8667 167 59.4667 164.867 49.2 160.6C39.0667 156.2 30.3333 150.2 23 142.6C15.6667 135 10 126.2 6 116.2C2 106.067 2.38419e-07 95.2 2.38419e-07 83.6C2.38419e-07 72 2 61.2 6 51.2C10 41.0667 15.6667 32.2 23 24.6C30.3333 17 39.0667 11.0667 49.2 6.8C59.4667 2.39999 70.8667 0.199987 83.4 0.199987C99.4 0.199987 113.533 3.73332 125.8 10.8C138.067 17.7333 147.667 27 154.6 38.6L149.4 42C143 31.2 134.133 22.5333 122.8 16C111.6 9.46666 98.4667 6.19999 83.4 6.19999C71.6667 6.19999 61.0667 8.19999 51.6 12.2C42.1333 16.2 34 21.7333 27.2 28.8C20.4 35.8667 15.1333 44.1333 11.4 53.6C7.8 62.9333 6 72.9333 6 83.6C6 94.2667 7.8 104.333 11.4 113.8C15.1333 123.133 20.4 131.333 27.2 138.4C34 145.467 42.1333 151 51.6 155C61.0667 159 71.6667 161 83.4 161C94.8667 161 105.267 159.067 114.6 155.2C123.933 151.333 132 145.933 138.8 139C145.6 132.067 150.867 124.133 154.6 115.2H161.2C157.333 125.333 151.667 134.333 144.2 142.2C136.867 149.933 128.067 156 117.8 160.4C107.533 164.8 96.0667 167 83.4 167ZM83.4 140.6C71.5333 140.6 61.3333 138.067 52.8 133C44.2667 127.8 37.7333 120.867 33.2 112.2C28.6667 103.533 26.4 94 26.4 83.6C26.4 73.0667 28.6667 63.5333 33.2 55C37.7333 46.3333 44.2667 39.4667 52.8 34.4C61.3333 29.2 71.5333 26.6 83.4 26.6C94.8667 26.6 104.733 29.0667 113 34C121.4 38.8 127.867 45.2 132.4 53.2L127.2 56.6C123.2 49.4 117.467 43.6667 110 39.4C102.533 35 93.6667 32.8 83.4 32.8C72.7333 32.8 63.5333 35.1333 55.8 39.8C48.2 44.3333 42.4 50.4667 38.4 58.2C34.4 65.8 32.4 74.2667 32.4 83.6C32.4 92.9333 34.4 101.467 38.4 109.2C42.4 116.8 48.2 122.933 55.8 127.6C63.5333 132.133 72.7333 134.4 83.4 134.4C92.6 134.4 100.667 132.667 107.6 129.2C114.533 125.6 120.067 120.933 124.2 115.2H131.8C127.133 122.933 120.667 129.133 112.4 133.8C104.133 138.333 94.4667 140.6 83.4 140.6ZM83.4 153.8C72.7333 153.8 63.0667 152 54.4 148.4C45.8667 144.667 38.4667 139.6 32.2 133.2C26.0667 126.8 21.3333 119.4 18 111C14.8 102.467 13.2 93.3333 13.2 83.6C13.2 73.8667 14.8 64.8 18 56.4C21.3333 47.8667 26.0667 40.4 32.2 34C38.4667 27.4667 45.8667 22.4 54.4 18.8C63.0667 15.2 72.7333 13.4 83.4 13.4C97.1333 13.4 109.133 16.4 119.4 22.4C129.8 28.2667 137.867 36.0667 143.6 45.8L138.4 49.2C133.067 40.2667 125.733 33.1333 116.4 27.8C107.067 22.3333 96.0667 19.6 83.4 19.6C70.3333 19.6 58.9333 22.4667 49.2 28.2C39.6 33.9333 32.2 41.6667 27 51.4C21.8 61 19.2 71.7333 19.2 83.6C19.2 95.3333 21.8 106.067 27 115.8C32.2 125.533 39.6 133.267 49.2 139C58.9333 144.733 70.3333 147.6 83.4 147.6C96.6 147.6 108.067 144.667 117.8 138.8C127.533 132.8 134.933 124.933 140 115.2H146.8C141.467 126.667 133.333 136 122.4 143.2C111.467 150.267 98.4667 153.8 83.4 153.8ZM178.359 164L207.559 83.6H213.959L243.159 164H236.759L210.759 92.4L206.959 102.8L229.159 164H222.759L219.359 154.4H188.159L184.759 164H178.359ZM164.359 164L193.559 83.6H199.959L170.759 164H164.359ZM195.159 135.2H212.359L203.759 111.6L195.159 135.2ZM190.359 148.4H217.159L214.559 141.2H192.959L190.359 148.4ZM253.172 164V83.6H259.172V164H253.172ZM331.372 164V83.6H337.372V164H331.372ZM266.372 164V83.6H272.372L295.172 112.2L318.172 83.6H324.172V164H318.172V114.2L303.772 132.6L272.372 93.2V104.8L299.172 138.2L295.372 143L272.372 114.4V164H266.372ZM318.172 93L299.172 117L303.772 122.8L318.172 104.6V93ZM366.567 164V83.6H414.367V89.6H372.567V96.8H414.367V102.8H372.567V114.2H407.967V120.2H372.567V127.4H407.967V133.4H372.567V144.8H414.367V150.8H372.567V158H414.367V164H366.567ZM353.367 164V83.6H359.367V164H353.367ZM454.423 164V3.2H460.423V164H454.423ZM428.023 164V3.2H434.023V164H428.023ZM441.223 164V3.2H447.223V164H441.223ZM558.223 164V3.2H564.223V164H558.223ZM531.823 164V3.2H537.823V164H531.823ZM545.023 164V3.2H551.023V164H545.023ZM467.623 73.4V67.4H524.623V73.4H467.623ZM467.623 86.6V80.6H524.623V86.6H467.623ZM467.623 99.8V93.8H524.623V99.8H467.623ZM582.273 134V83.6H588.273V133.8C588.273 142.333 590.807 148.867 595.873 153.4C601.073 157.8 607.207 160 614.273 160C621.34 160 627.407 157.8 632.473 153.4C637.673 148.867 640.273 142.333 640.273 133.8V83.6H646.273V134C646.14 140.8 644.607 146.6 641.673 151.4C638.873 156.067 635.073 159.667 630.273 162.2C625.473 164.733 620.14 166 614.273 166C608.407 166 603.007 164.733 598.073 162.2C593.273 159.667 589.407 156 586.473 151.2C583.673 146.4 582.273 140.667 582.273 134ZM595.473 134V83.6H601.473V133.8C601.473 138.333 602.74 141.667 605.273 143.8C607.807 145.8 610.807 146.8 614.273 146.8C617.74 146.8 620.74 145.8 623.273 143.8C625.807 141.667 627.073 138.333 627.073 133.8V83.6H633.073V134C632.94 140.267 631.007 145 627.273 148.2C623.673 151.267 619.34 152.8 614.273 152.8C609.207 152.8 604.807 151.2 601.073 148C597.34 144.8 595.473 140.133 595.473 134ZM675.552 164V83.6H707.152C713.685 83.7333 719.285 86 723.952 90.4C728.618 94.6667 730.952 100.6 730.952 108.2C730.952 110.867 730.618 113.4 729.952 115.8C729.418 118.067 728.618 120.133 727.552 122C731.152 126.4 732.952 131.933 732.952 138.6C732.952 146.733 730.552 153 725.752 157.4C721.085 161.8 715.418 164 708.752 164H675.552ZM662.352 164V83.6H668.352V164H662.352ZM706.752 89.6H681.552V96.8H707.152C710.352 96.9333 712.885 98.0667 714.752 100.2C716.752 102.2 717.752 104.867 717.752 108.2C717.752 110.733 717.218 112.867 716.152 114.6C718.685 115.4 720.952 116.467 722.952 117.8C724.285 115 724.952 111.8 724.952 108.2C724.952 102.067 723.152 97.4667 719.552 94.4C716.085 91.2 711.818 89.6 706.752 89.6ZM706.752 102.8H681.552V113.6H708.752C709.152 113.6 709.552 113.6 709.952 113.6C710.485 112.933 710.885 112.2 711.152 111.4C711.552 110.467 711.752 109.4 711.752 108.2C711.752 106.333 711.285 105 710.352 104.2C709.418 103.267 708.218 102.8 706.752 102.8ZM708.552 119.6H681.552V126.8H708.752C712.085 126.8 714.752 127.867 716.752 130C718.752 132.133 719.752 135 719.752 138.6C719.752 142.333 718.752 145.333 716.752 147.6C714.752 149.733 712.085 150.8 708.752 150.8H681.552V158H708.552C713.618 158 717.952 156.4 721.552 153.2C725.152 150 726.952 145.133 726.952 138.6C726.952 132.333 725.152 127.6 721.552 124.4C717.952 121.2 713.618 119.6 708.552 119.6ZM708.552 132.8H681.552V144.8H708.552C710.018 144.8 711.218 144.333 712.152 143.4C713.218 142.467 713.752 140.867 713.752 138.6C713.752 136.467 713.218 135 712.152 134.2C711.218 133.267 710.018 132.8 708.552 132.8Z" fill="#C9C4AC"/>
</svg>
